<svg xmlns="http://www.w3.org/2000/svg" viewBox="0 0 56 56" fill="none">
  <rect width="56" height="56" rx="12" fill="#1e293b"/>
  <path d="M28 12c-1.5 0-2.8 1.8-2.8 4.2 0 2.3 1.3 4.2 2.8 4.2s2.8-1.9 2.8-4.2C30.8 13.8 29.5 12 28 12z" fill="#fbbf24" opacity="0.9"/>
  <path d="M22 18a10 10 0 0 0 0 20c-2 0-3.5-4.5-3.5-10S20 18 22 18z" fill="#fbbf24"/>
  <path d="M34 18a10 10 0 0 1 0 20c2 0 3.5-4.5 3.5-10S36 18 34 18z" fill="#fbbf24" opacity="0.6"/>
  <circle cx="28" cy="28" r="7" fill="#fbbf24" opacity="0.15"/>
  <text x="28" y="44" text-anchor="middle" font-family="system-ui" font-size="7" font-weight="600" fill="#fbbf24">RAMADAN</text>
</svg>
