<svg xmlns="http://www.w3.org/2000/svg" viewBox="0 0 56 56" fill="none">
  <rect width="56" height="56" rx="12" fill="#1e293b"/>
  <path d="M28 10 L28 14" stroke="#0d9488" stroke-width="1.5" stroke-linecap="round"/>
  <path d="M28 14 C22 14 17 19 17 25 L17 38 C17 39.7 18.3 41 20 41 L36 41 C37.7 41 39 39.7 39 38 L39 25 C39 19 34 14 28 14z" fill="#0d9488" opacity="0.85"/>
  <path d="M24 41 L24 34 C24 31.8 25.8 30 28 30 C30.2 30 32 31.8 32 34 L32 41" fill="#1e293b"/>
  <circle cx="28" cy="22" r="2.5" fill="#1e293b" opacity="0.3"/>
  <text x="28" y="50" text-anchor="middle" font-family="system-ui" font-size="6.5" font-weight="600" fill="#0d9488">UMRAH</text>
</svg>
